<svg xmlns="http://www.w3.org/2000/svg" viewBox="0 0 400 300" width="400" height="300"><rect width="400" height="300" fill="#10B981" opacity="0.08"/><rect x="65" y="40" width="130" height="170" rx="8" fill="#FAFAF7" stroke="#171717" stroke-width="2"/><rect x="85" y="70" width="90" height="10" rx="4" fill="#E5E5E0"/><rect x="85" y="90" width="70" height="10" rx="4" fill="#E5E5E0"/><rect x="85" y="110" width="90" height="10" rx="4" fill="#E5E5E0"/><rect x="85" y="145" width="90" height="32" rx="6" fill="#737373"/><text x="130" y="165" text-anchor="middle" font-family="system-ui" font-size="10" font-weight="600" fill="#fff">Draft</text><path d="M210 130 L235 145" stroke="#10B981" stroke-width="3" stroke-linecap="round"/><path d="M235 145 L228 138 M235 145 L229 152" stroke="#10B981" stroke-width="3" fill="none" stroke-linecap="round"/><rect x="255" y="40" width="130" height="170" rx="8" fill="#FAFAF7" stroke="#10B981" stroke-width="2.5"/><rect x="275" y="70" width="90" height="10" rx="4" fill="#E5E5E0"/><rect x="275" y="90" width="90" height="10" rx="4" fill="#E5E5E0"/><rect x="275" y="110" width="70" height="10" rx="4" fill="#E5E5E0"/><rect x="275" y="145" width="90" height="32" rx="6" fill="#10B981"/><text x="320" y="165" text-anchor="middle" font-family="system-ui" font-size="10" font-weight="600" fill="#fff">Ready</text><text x="200" y="240" text-anchor="middle" font-family="system-ui" font-size="11" fill="#171717">Tailored Cover Letters</text><text x="200" y="258" text-anchor="middle" font-family="system-ui" font-size="10" fill="#737373">Per application</text><circle cx="320" cy="230" r="18" fill="none" stroke="#10B981" stroke-width="3"/><path d="M313 230 L319 236 L327 222" stroke="#10B981" stroke-width="3" fill="none" stroke-linecap="round" stroke-linejoin="round"/></svg>