<svg xmlns="http://www.w3.org/2000/svg" viewBox="0 0 500 300" width="500" height="300"><rect width="500" height="300" fill="#FF6B35" opacity="0.08"/><circle cx="250" cy="110" r="48" fill="#FF6B35" opacity="0.15"/><path d="M250 80 L256 100 L278 100 L260 112 L266 134 L250 120 L234 134 L240 112 L222 100 L244 100 Z" fill="#FF6B35"/><rect x="175" y="180" width="150" height="40" rx="8" fill="#10B981"/><text x="250" y="205" text-anchor="middle" font-family="system-ui" font-size="12" font-weight="600" fill="#fff">Interview Complete!</text><text x="250" y="245" text-anchor="middle" font-family="system-ui" font-size="11" fill="#737373">Average Score</text><rect x="210" y="248" width="80" height="10" rx="5" fill="#FF6B35" opacity="0.2"/><rect x="215" y="251" width="70" height="4" rx="2" fill="#FF6B35"/><circle cx="180" cy="105" r="4" fill="#FF6B35"/><circle cx="320" cy="105" r="4" fill="#FF6B35"/><circle cx="190" cy="140" r="3" fill="#10B981"/><circle cx="310" cy="140" r="3" fill="#10B981"/><circle cx="250" cy="155" r="3" fill="#8B5CF6"/></svg>