<svg xmlns="http://www.w3.org/2000/svg" viewBox="0 0 500 300" width="500" height="300"><rect width="500" height="300" fill="#FF6B35" opacity="0.08"/><path d="M60 240 L140 240 L140 180 L220 180 L220 130 L300 130 L300 80 L380 80" fill="none" stroke="#FF6B35" stroke-width="4" stroke-linecap="round" stroke-linejoin="round"/><circle cx="60" cy="240" r="10" fill="#10B981"/><text x="60" y="265" text-anchor="middle" font-family="system-ui" font-size="11" font-weight="600" fill="#10B981">Beginner</text><rect x="120" y="170" rx="8" width="70" height="28" fill="#F59E0B" opacity="0.15" stroke="#F59E0B" stroke-width="2"/><text x="155" y="189" text-anchor="middle" font-family="system-ui" font-size="10" fill="#F59E0B">L1</text><text x="155" y="215" text-anchor="middle" font-family="system-ui" font-size="10" fill="#737373">Fundamentals</text><circle cx="220" cy="180" r="10" fill="#F59E0B"/><text x="220" y="265" text-anchor="middle" font-family="system-ui" font-size="11" font-weight="600" fill="#F59E0B">Intermediate</text><rect x="200" y="120" rx="8" width="70" height="28" fill="#FF6B35" opacity="0.15" stroke="#FF6B35" stroke-width="2"/><text x="235" y="139" text-anchor="middle" font-family="system-ui" font-size="10" fill="#FF6B35">L2</text><text x="235" y="165" text-anchor="middle" font-family="system-ui" font-size="10" fill="#737373">Role Skills</text><circle cx="300" cy="130" r="10" fill="#FF6B35"/><text x="300" y="265" text-anchor="middle" font-family="system-ui" font-size="11" font-weight="600" fill="#FF6B35">Advanced</text><rect x="280" y="70" rx="8" width="70" height="28" fill="#EF4444" opacity="0.15" stroke="#EF4444" stroke-width="2"/><text x="315" y="89" text-anchor="middle" font-family="system-ui" font-size="10" fill="#EF4444">L3</text><text x="315" y="115" text-anchor="middle" font-family="system-ui" font-size="10" fill="#737373">Mastery</text><circle cx="380" cy="80" r="10" fill="#EF4444"/><text x="380" y="265" text-anchor="middle" font-family="system-ui" font-size="11" font-weight="600" fill="#EF4444">Done</text></svg>