<svg xmlns="http://www.w3.org/2000/svg" viewBox="0 0 500 300" width="500" height="300"><rect width="500" height="300" fill="#FF6B35" opacity="0.08"/><rect x="115" y="40" width="270" height="180" rx="16" fill="#FAFAF7" stroke="#171717" stroke-width="2"/><rect x="140" y="70" width="220" height="18" rx="4" fill="#E5E5E0"/><rect x="140" y="98" width="150" height="12" rx="4" fill="#E5E5E0"/><rect x="140" y="118" width="180" height="12" rx="4" fill="#E5E5E0"/><rect x="140" y="156" width="100" height="32" rx="8" fill="#FF6B35"/><text x="190" y="177" text-anchor="middle" font-family="system-ui" font-size="11" font-weight="600" fill="#fff">Start</text><rect x="260" y="156" width="100" height="32" rx="8" fill="#E5E5E0" stroke="#171717" stroke-width="2"/><text x="310" y="177" text-anchor="middle" font-family="system-ui" font-size="11" font-weight="600" fill="#171717">Cancel</text><circle cx="250" cy="240" r="16" fill="#FF6B35" opacity="0.15"/><path d="M244 240 L249 245 L257 237" stroke="#FF6B35" stroke-width="3" fill="none" stroke-linecap="round" stroke-linejoin="round"/><circle cx="185" cy="240" r="16" fill="#10B981" opacity="0.15"/><path d="M185 236 L185 244 M179 240 L191 240" stroke="#10B981" stroke-width="3" stroke-linecap="round"/><circle cx="315" cy="240" r="16" fill="#8B5CF6" opacity="0.15"/><path d="M315 236 L315 244" stroke="#8B5CF6" stroke-width="3" stroke-linecap="round"/><text x="185" y="266" text-anchor="middle" font-family="system-ui" font-size="10" fill="#737373">30 min</text><text x="250" y="266" text-anchor="middle" font-family="system-ui" font-size="10" fill="#737373">AI Coach</text><text x="315" y="266" text-anchor="middle" font-family="system-ui" font-size="10" fill="#737373">Role</text></svg>