<svg xmlns="http://www.w3.org/2000/svg" viewBox="0 0 500 300" width="500" height="300"><rect width="500" height="300" fill="#FF6B35" opacity="0.08"/><circle cx="250" cy="105" r="28" fill="#FF6B35" opacity="0.15"/><g transform="translate(250,105)" fill="#FF6B35"><circle cx="0" cy="-8" r="10"/><path d="M-12 12 Q-12 0 0 0 Q12 0 12 12 L12 22 L-12 22 Z" opacity="0.9"/></g><rect x="60" y="175" rx="8" width="100" height="36" fill="#FF6B35" opacity="0.15" stroke="#FF6B35" stroke-width="2"/><text x="110" y="198" text-anchor="middle" font-family="system-ui" font-size="11" font-weight="600" fill="#FF6B35">PPC</text><rect x="175" y="175" rx="8" width="100" height="36" fill="#10B981" opacity="0.12" stroke="#10B981" stroke-width="2"/><text x="225" y="198" text-anchor="middle" font-family="system-ui" font-size="11" font-weight="600" fill="#10B981">Listing</text><rect x="290" y="175" rx="8" width="100" height="36" fill="#8B5CF6" opacity="0.12" stroke="#8B5CF6" stroke-width="2"/><text x="340" y="198" text-anchor="middle" font-family="system-ui" font-size="11" font-weight="600" fill="#8B5CF6">Account</text><rect x="60" y="230" rx="8" width="100" height="36" fill="#F59E0B" opacity="0.12" stroke="#F59E0B" stroke-width="2"/><text x="110" y="253" text-anchor="middle" font-family="system-ui" font-size="11" font-weight="600" fill="#F59E0B">Reporting</text><rect x="175" y="230" rx="8" width="100" height="36" fill="#EF4444" opacity="0.12" stroke="#EF4444" stroke-width="2"/><text x="225" y="253" text-anchor="middle" font-family="system-ui" font-size="11" font-weight="600" fill="#EF4444">Agency</text><rect x="290" y="230" rx="8" width="100" height="36" fill="#171717" opacity="0.08" stroke="#171717" stroke-width="2"/><text x="340" y="253" text-anchor="middle" font-family="system-ui" font-size="11" font-weight="600" fill="#171717">General</text></svg>