<svg xmlns="http://www.w3.org/2000/svg" viewBox="0 0 400 300" width="400" height="300"><rect width="400" height="300" fill="#FF6B35" opacity="0.08"/><rect x="45" y="45" width="140" height="180" rx="8" fill="#FAFAF7" stroke="#171717" stroke-width="2"/><rect x="75" y="80" width="80" height="8" rx="4" fill="#E5E5E0"/><rect x="75" y="100" width="60" height="8" rx="4" fill="#E5E5E0"/><rect x="75" y="120" width="80" height="8" rx="4" fill="#E5E5E0"/><rect x="75" y="145" width="80" height="32" rx="6" fill="#FF6B35"/><text x="115" y="165" text-anchor="middle" font-family="system-ui" font-size="10" font-weight="600" fill="#fff">Before</text><text x="115" y="215" text-anchor="middle" font-family="system-ui" font-size="10" fill="#737373">Generic Resume</text><path d="M200 150 L230 160" stroke="#FF6B35" stroke-width="3" stroke-linecap="round"/><path d="M230 160 L220 154 M230 160 L224 168" stroke="#FF6B35" stroke-width="3" fill="none" stroke-linecap="round"/><rect x="245" y="45" width="140" height="180" rx="8" fill="#FAFAF7" stroke="#10B981" stroke-width="2.5"/><rect x="275" y="80" width="80" height="8" rx="4" fill="#E5E5E0"/><rect x="275" y="100" width="80" height="8" rx="4" fill="#E5E5E0"/><rect x="275" y="120" width="70" height="8" rx="4" fill="#E5E5E0"/><rect x="275" y="145" width="80" height="32" rx="6" fill="#10B981"/><text x="315" y="165" text-anchor="middle" font-family="system-ui" font-size="10" font-weight="600" fill="#fff">After</text><text x="315" y="215" text-anchor="middle" font-family="system-ui" font-size="10" fill="#737373">Amazon-Ready</text><text x="200" y="260" text-anchor="middle" font-family="system-ui" font-size="12" fill="#171717">AI-Powered Resume Review</text></svg>